<?xml version="1.0" encoding="utf-8"?>
<svg xmlns="http://www.w3.org/2000/svg" viewBox="0 0 500 500">
  <g id="Layer_1">
    <g>
      <path class="cls-3" d="M 461.966 179.058 L 371.82 263.541 L 370.365 209.971 C 370.365 209.971 328.61 209.484 292.678 239.911 C 256.747 270.338 233.808 320.348 132.938 306.998 C 132.938 306.998 195.936 304.084 237.813 261.599 C 281.978 216.792 280.784 198.965 353.615 165.462 L 328.53 122.571 L 461.97 179.055 L 461.966 179.058 Z" style="fill: rgb(196, 0, 9); stroke-width: 1;"/>
      <path class="cls-2" d="M 361.946 226.155 L 271.799 310.638 L 270.344 257.067 C 270.344 257.067 228.588 256.581 192.658 287.008 C 156.725 317.434 133.787 367.445 32.923 354.095 C 32.923 354.095 95.913 351.181 137.788 308.696 C 181.959 263.888 180.764 246.062 253.593 212.558 L 228.508 169.667 L 361.95 226.151 L 361.946 226.155 Z" style="fill: rgb(124, 174, 66); stroke-width: 1;"/>
    </g>
    <g transform="matrix(1, 0, 0, 1, -1197.87439, -529.301575)"/>
  </g>
</svg>