<?xml version="1.0" encoding="UTF-8"?>
<svg id="Layer_1" data-name="Layer 1" xmlns="http://www.w3.org/2000/svg" viewBox="0 0 2792.24 1425.29">
  <defs>
    <style>
      .cls-1 {
        fill: #3a393c;
      }

      .cls-2 {
        fill: #7cae42;
      }

      .cls-3 {
        fill: #c40009;
      }
    </style>
  </defs>
  <path class="cls-3" d="M1294.45,236.27l-259.57,243.26-4.19-154.25s-120.23-1.4-223.69,86.21-169.51,231.61-459.96,193.17c0,0,181.4-8.39,301.98-130.72,127.17-129.02,123.73-180.35,333.44-276.82l-72.23-123.5,384.23,162.64Z"/>
  <path class="cls-2" d="M1006.45,371.88l-259.57,243.26-4.19-154.25s-120.23-1.4-223.69,86.21-169.51,231.61-459.96,193.17c0,0,181.4-8.39,301.98-130.72,127.17-129.02,123.73-180.35,333.44-276.82l-72.23-123.5,384.23,162.64Z"/>
  <g>
    <path class="cls-1" d="M858.25,1134.22c-24.79,12.58-72.17,24.79-132.5,24.79-118.83,0-232.55-76-232.55-250.41,0-145.98,94.04-256.25,249.14-256.25,62.51,0,98.78,13.85,113.91,21.51l-11.3,29.34c-24.97-12.39-60.69-21.32-102.24-21.32-132.5,0-213.42,86.2-213.42,227.45,0,133.59,76.18,219.61,207.58,219.61,42.1,0,82.92-8.57,110.99-22.78l10.39,28.07Z"/>
    <path class="cls-1" d="M997.3,979.49l-60.69,171.86h-35.54l177.69-491.35h33.72l176.97,491.35h-35.9l-61.78-171.86h-194.46ZM1181.19,950.33l-59.78-164.21c-12.03-34.08-18.59-58.68-25.7-86.57h-1.82c-6.93,28.61-14.76,54.13-25.52,85.11l-60.14,165.67h172.96Z"/>
    <path class="cls-1" d="M1772.77,918.44c-4.74-73.63-10.57-164.03-10.02-217.79h-2c-17.68,53.4-37.91,110.44-66.16,183.53l-103.15,267.18h-24.24l-96.78-261.17c-28.07-76.54-48.84-135.41-63.61-189.54h-1.82c-1.28,57.77-4.74,143.25-10.57,224.72l-15.49,225.99h-34.08l35.9-491.35h39.73l105.71,283.22c23.15,62.51,40.46,111.9,54.31,159.29h1.64c12.58-45.38,30.07-92.95,55.22-158.74l109.53-283.76h41.55l32.99,491.35h-34.26l-14.4-232.92Z"/>
    <path class="cls-1" d="M1971.97,979.49l-60.69,171.86h-35.54l177.69-491.35h33.72l176.97,491.35h-35.9l-61.78-171.86h-194.46ZM2155.87,950.33l-59.78-164.21c-12.03-34.08-18.59-58.68-25.7-86.57h-1.82c-6.93,28.61-14.76,54.13-25.51,85.11l-60.14,165.67h172.96Z"/>
    <path class="cls-1" d="M2337.56,666.75c37.73-6.2,79.46-10.57,125.94-10.57,89.48,0,157.28,24.24,197.74,67.25,39.55,40.82,61.24,95.86,61.24,170.22s-19.68,137.42-64.15,186.26c-43.19,47.39-117.19,75.27-211.96,75.27-37.91,0-73.45-.73-108.8-4.37v-484.06ZM2372.19,1122.19c20.05,3.1,48.48,3.64,79.28,3.64,157.83,0,235.47-88.21,235.47-230.55,1.09-124.66-68.16-209.95-225.63-209.95-38.09,0-67.8,3.65-89.12,7.84v429.02Z"/>
  </g>
  <g>
    <path class="cls-3" d="M484.5,1229.02l19.73,52.15c3.33,8.23,5.95,15.36,8.18,22.49h.39c2.32-7,5.34-14.44,8.53-22.49l19.99-52.15h8.75l-34.17,84h-7.35l-32.9-84h8.84Z"/>
    <path class="cls-3" d="M634.17,1270.23c0,31.37-21.48,44.71-40.21,44.71-21.74,0-38.5-16.89-38.5-43.27,0-28.74,18.86-44.58,39.73-44.58,23.19,0,38.98,17.41,38.98,43.14ZM563.86,1271.28c0,21,13.39,36.75,30.67,36.75s31.24-15.88,31.24-37.41c0-15.36-8.66-36.62-30.8-36.62s-31.11,19.16-31.11,37.28Z"/>
    <path class="cls-3" d="M652.89,1188.77h8.31v124.25h-8.31v-124.25Z"/>
    <path class="cls-3" d="M752.03,1292.5c0,7.48.26,14.09.7,20.52h-7.74l-.57-14.92h-.35c-4.24,7.74-13.78,16.84-28.83,16.84-10.68,0-28.57-5.29-28.57-37.01v-48.91h8.31v47.21c0,18.33,5.64,31.46,22.31,31.46,12.21,0,21.22-8.58,24.76-17.06.88-2.62,1.66-5.86,1.66-9.28v-52.33h8.31v63.48Z"/>
    <path class="cls-3" d="M777.66,1249.1c0-7.7-.26-13.48-.7-20.08h7.74l.61,15.18h.35c4.59-9.45,15.14-17.11,28.92-17.11,8.01,0,29.31,4.11,29.31,35.57v50.36h-8.31v-49.61c0-15.31-5.91-29.18-23.28-29.18-11.81,0-21.88,8.44-25.2,19.34-.61,2.01-1.14,4.86-1.14,7.48v51.98h-8.31v-63.92Z"/>
    <path class="cls-3" d="M880.04,1204.7v24.33h23.93v6.74h-23.93v54.6c0,10.68,3.33,17.37,12.34,17.37,4.33,0,7.39-.57,9.54-1.31l1.01,6.43c-2.71,1.14-6.52,2.01-11.59,2.01-6.12,0-11.2-1.93-14.48-5.95-3.81-4.42-5.12-11.46-5.12-20.04v-53.11h-14.18v-6.74h14.18v-21.61l8.31-2.71Z"/>
    <path class="cls-3" d="M920.15,1270.23c0,26.82,14.61,37.45,31.94,37.45,12.25,0,18.59-2.45,23.36-4.77l2.14,6.56c-3.24,1.75-11.86,5.38-26.51,5.38-24.15,0-39.16-17.59-39.16-42.18,0-28.04,16.06-45.59,37.76-45.59,27.52,0,32.73,25.86,32.73,37.98,0,2.36,0,3.68-.26,5.16h-61.99ZM973.7,1263.58c.22-11.72-4.68-29.58-25.11-29.58-18.46,0-26.47,16.62-28,29.58h53.11Z"/>
    <path class="cls-3" d="M1002.4,1270.23c0,26.82,14.61,37.45,31.94,37.45,12.25,0,18.59-2.45,23.36-4.77l2.14,6.56c-3.24,1.75-11.86,5.38-26.51,5.38-24.15,0-39.16-17.59-39.16-42.18,0-28.04,16.06-45.59,37.76-45.59,27.52,0,32.73,25.86,32.73,37.98,0,2.36,0,3.68-.26,5.16h-61.99ZM1055.95,1263.58c.22-11.72-4.68-29.58-25.11-29.58-18.46,0-26.47,16.62-28,29.58h53.11Z"/>
    <path class="cls-3" d="M1083.34,1254.22c0-8.4-.26-17.06-.7-25.2h7.7l.35,17.06h.48c3.68-10.63,12.34-18.99,23.84-18.99,1.18,0,2.36.13,3.41.39v7.96c-1.27-.26-2.45-.26-4.02-.26-11.51,0-19.78,10.02-22.05,23.49-.44,2.45-.7,5.25-.7,7.96v46.38h-8.31v-58.8Z"/>
    <path class="cls-3" d="M1144.5,1205c0,3.89-2.58,7.26-7,7.26-3.81,0-6.48-3.37-6.48-7.26s2.93-7.26,6.78-7.26,6.69,3.28,6.69,7.26ZM1133.6,1313.02v-84h8.31v84h-8.31Z"/>
    <path class="cls-3" d="M1167.55,1249.1c0-7.7-.26-13.48-.7-20.08h7.74l.61,15.18h.35c4.59-9.45,15.14-17.11,28.92-17.11,8.01,0,29.31,4.11,29.31,35.57v50.36h-8.31v-49.61c0-15.31-5.91-29.18-23.28-29.18-11.81,0-21.88,8.44-25.2,19.34-.61,2.01-1.14,4.86-1.14,7.48v51.98h-8.31v-63.92Z"/>
    <path class="cls-3" d="M1326.37,1229.02c-.44,6.26-.7,12.91-.7,21.7v50.05c0,21.53-4.42,32.2-11.51,38.89-7.66,7.31-18.94,9.93-28.44,9.93s-20.3-2.45-26.69-7.22l2.97-6.69c5.82,3.81,14.09,7,24.98,7,17.63,0,30.36-9.14,30.36-34.04v-11.86h-.35c-4.38,8.53-14.22,16.23-29.23,16.23-21.09,0-36.01-18.42-36.01-41.21,0-29.36,19.21-44.71,37.84-44.71,16.49,0,24.81,9.06,28.22,16.1h.35l.48-14.17h7.7ZM1317.35,1261.31c0-3.02-.26-5.64-1.05-8.09-3.46-10.15-12.34-19.21-26.12-19.21-17.76,0-30.01,14.61-30.01,36.84,0,18.9,9.93,35.26,29.79,35.26,11.2,0,21.66-6.96,25.9-19.03.96-2.76,1.49-5.91,1.49-8.88v-16.89Z"/>
    <path class="cls-2" d="M1444.93,1309.39c-3.59,1.84-12.38,5.47-24.54,5.47-24.19,0-40.34-17.63-40.34-42.88,0-26.73,18.2-44.89,43.31-44.89,10.33,0,18.77,2.93,22.05,5.21l-2.97,6.91c-4.11-2.36-10.54-4.9-19.91-4.9-22.53,0-34.08,17.24-34.08,37.01,0,22.01,13.87,36.36,33.21,36.36,10.02,0,16.49-2.84,21-4.86l2.28,6.56Z"/>
    <path class="cls-2" d="M1533.83,1270.23c0,31.37-21.48,44.71-40.21,44.71-21.74,0-38.5-16.89-38.5-43.27,0-28.74,18.86-44.58,39.73-44.58,23.19,0,38.98,17.41,38.98,43.14ZM1463.52,1271.28c0,21,13.39,36.75,30.67,36.75s31.24-15.88,31.24-37.41c0-15.36-8.66-36.62-30.8-36.62s-31.11,19.16-31.11,37.28Z"/>
    <path class="cls-2" d="M1552.55,1249.1c0-7.7-.26-13.48-.7-20.08h7.74l.61,14.88h.35c5.38-9.67,13.43-16.8,27.26-16.8,11.68,0,20.52,7.79,24.11,18.38h.35c2.41-4.99,5.47-8.75,8.58-11.38,5.42-4.51,11.11-7,20.08-7,8.18,0,27.39,4.64,27.39,36.44v49.48h-8.31v-48.69c0-18.86-7.31-30.1-21.92-30.1-10.46,0-18.77,7.79-22.05,16.67-.79,2.41-1.44,5.21-1.44,8.31v53.81h-8.31v-52.5c0-15.14-7.26-26.29-20.83-26.29-11.29,0-20.17,9.14-23.32,18.94-.74,2.36-1.27,5.21-1.27,8.09v51.76h-8.31v-63.92Z"/>
    <path class="cls-2" d="M1693.25,1249.1c0-7.7-.26-13.48-.7-20.08h7.74l.61,14.88h.35c5.38-9.67,13.43-16.8,27.26-16.8,11.68,0,20.52,7.79,24.11,18.38h.35c2.41-4.99,5.47-8.75,8.58-11.38,5.42-4.51,11.11-7,20.08-7,8.18,0,27.39,4.64,27.39,36.44v49.48h-8.31v-48.69c0-18.86-7.31-30.1-21.92-30.1-10.46,0-18.77,7.79-22.05,16.67-.79,2.41-1.44,5.21-1.44,8.31v53.81h-8.31v-52.5c0-15.14-7.26-26.29-20.83-26.29-11.29,0-20.17,9.14-23.32,18.94-.74,2.36-1.27,5.21-1.27,8.09v51.76h-8.31v-63.92Z"/>
    <path class="cls-2" d="M1898.61,1292.5c0,7.48.26,14.09.7,20.52h-7.74l-.57-14.92h-.35c-4.24,7.74-13.78,16.84-28.83,16.84-10.68,0-28.57-5.29-28.57-37.01v-48.91h8.31v47.21c0,18.33,5.64,31.46,22.31,31.46,12.21,0,21.22-8.58,24.76-17.06.88-2.62,1.66-5.86,1.66-9.28v-52.33h8.31v63.48Z"/>
    <path class="cls-2" d="M1924.24,1249.1c0-7.7-.26-13.48-.7-20.08h7.74l.61,15.18h.35c4.59-9.45,15.14-17.11,28.92-17.11,8.01,0,29.31,4.11,29.31,35.57v50.36h-8.31v-49.61c0-15.31-5.91-29.18-23.28-29.18-11.81,0-21.88,8.44-25.2,19.34-.61,2.01-1.14,4.86-1.14,7.48v51.98h-8.31v-63.92Z"/>
    <path class="cls-2" d="M2026.31,1205c0,3.89-2.58,7.26-7,7.26-3.81,0-6.48-3.37-6.48-7.26s2.93-7.26,6.78-7.26,6.69,3.28,6.69,7.26ZM2015.42,1313.02v-84h8.31v84h-8.31Z"/>
    <path class="cls-2" d="M2060.92,1204.7v24.33h23.93v6.74h-23.93v54.6c0,10.68,3.33,17.37,12.34,17.37,4.33,0,7.39-.57,9.54-1.31l1.01,6.43c-2.71,1.14-6.52,2.01-11.59,2.01-6.12,0-11.2-1.93-14.48-5.95-3.81-4.42-5.12-11.46-5.12-20.04v-53.11h-14.18v-6.74h14.18v-21.61l8.31-2.71Z"/>
    <path class="cls-2" d="M2099.46,1229.02l22.01,54.91c2.32,5.95,4.64,12.73,6.17,18.11h.35c1.71-5.21,3.89-11.77,6.39-18.64l20.56-54.38h8.88l-25.2,62.69c-10.15,26.08-17.28,41.65-28.26,51.19-6.65,5.69-12.73,8.09-14.7,8.75l-2.67-6.96c4.16-1.58,9.71-4.51,14.66-9.36,4.2-4.11,9.8-11.11,14.04-21.13.7-1.79,1.01-2.8,1.01-3.63,0-.79-.26-1.97-1.01-3.67l-31.11-77.88h8.88Z"/>
    <path class="cls-3" d="M2209.35,1302c4.51,2.84,11.29,5.82,18.9,5.82,13.21,0,19.51-7.26,19.51-16.01,0-9.23-5.56-14.18-17.67-18.94-13.74-5.34-21.31-12.82-21.31-23.01,0-12.12,9.54-22.75,25.86-22.75,7.74,0,14.26,2.32,18.64,5.34l-3.32,6.78c-2.89-2.06-8.31-5.08-16.63-5.08-10.67,0-16.36,6.87-16.36,14.53,0,8.79,5.95,12.51,17.41,17.24,13.56,5.38,21.61,12.12,21.61,24.85,0,14.39-11.16,24.11-28.35,24.11-8.09,0-15.75-2.32-21.35-5.82l3.06-7.04Z"/>
    <path class="cls-3" d="M2340.12,1292.5c0,7.48.26,14.09.7,20.52h-7.74l-.57-14.92h-.35c-4.24,7.74-13.78,16.84-28.83,16.84-10.68,0-28.57-5.29-28.57-37.01v-48.91h8.31v47.21c0,18.33,5.64,31.46,22.31,31.46,12.21,0,21.22-8.58,24.76-17.06.88-2.62,1.66-5.86,1.66-9.28v-52.33h8.31v63.48Z"/>
    <path class="cls-3" d="M2365.71,1255.84c0-10.5-.26-18.86-.7-26.82h7.96l.61,15.92h.35c6.04-11.11,16.41-17.85,30.98-17.85,21.57,0,36.14,17.85,36.14,42.53,0,30.06-17.89,45.33-38.19,45.33-11.99,0-22.66-5.42-28.48-15.53h-.35v48.26h-8.31v-91.83ZM2374.02,1279.95c0,2.27.26,4.55.74,6.69,3.41,12.99,14.7,21.39,27.61,21.39,19.29,0,30.28-15.66,30.28-38.06,0-18.9-10.54-35.96-29.58-35.96-12.29,0-24.11,8.49-27.83,22.4-.57,2.27-1.22,4.9-1.22,7.17v16.36Z"/>
    <path class="cls-3" d="M2459.68,1255.84c0-10.5-.26-18.86-.7-26.82h7.96l.61,15.92h.35c6.04-11.11,16.41-17.85,30.98-17.85,21.57,0,36.14,17.85,36.14,42.53,0,30.06-17.89,45.33-38.19,45.33-11.99,0-22.66-5.42-28.48-15.53h-.35v48.26h-8.31v-91.83ZM2468,1279.95c0,2.27.26,4.55.74,6.69,3.41,12.99,14.7,21.39,27.61,21.39,19.29,0,30.28-15.66,30.28-38.06,0-18.9-10.54-35.96-29.58-35.96-12.29,0-24.11,8.49-27.83,22.4-.57,2.27-1.22,4.9-1.22,7.17v16.36Z"/>
    <path class="cls-3" d="M2625.45,1270.23c0,31.37-21.48,44.71-40.21,44.71-21.74,0-38.5-16.89-38.5-43.27,0-28.74,18.86-44.58,39.73-44.58,23.19,0,38.98,17.41,38.98,43.14ZM2555.14,1271.28c0,21,13.39,36.75,30.67,36.75s31.24-15.88,31.24-37.41c0-15.36-8.66-36.62-30.8-36.62s-31.11,19.16-31.11,37.28Z"/>
    <path class="cls-3" d="M2644.13,1254.22c0-8.4-.26-17.06-.7-25.2h7.7l.35,17.06h.48c3.67-10.63,12.34-18.99,23.84-18.99,1.18,0,2.36.13,3.41.39v7.96c-1.27-.26-2.45-.26-4.03-.26-11.51,0-19.78,10.02-22.05,23.49-.44,2.45-.7,5.25-.7,7.96v46.38h-8.31v-58.8Z"/>
    <path class="cls-3" d="M2709.27,1204.7v24.33h23.93v6.74h-23.93v54.6c0,10.68,3.33,17.37,12.34,17.37,4.33,0,7.39-.57,9.54-1.31l1.01,6.43c-2.71,1.14-6.52,2.01-11.59,2.01-6.12,0-11.2-1.93-14.48-5.95-3.81-4.42-5.12-11.46-5.12-20.04v-53.11h-14.18v-6.74h14.18v-21.61l8.31-2.71Z"/>
  </g>
</svg>